{
	"patcher" : 	{
		"fileversion" : 1,
		"appversion" : 		{
			"major" : 5,
			"minor" : 1,
			"revision" : 9
		}
,
		"rect" : [ 477.0, 218.0, 739.0, 475.0 ],
		"bglocked" : 0,
		"defrect" : [ 477.0, 218.0, 739.0, 475.0 ],
		"openrect" : [ 0.0, 0.0, 0.0, 0.0 ],
		"openinpresentation" : 0,
		"default_fontsize" : 12.0,
		"default_fontface" : 0,
		"default_fontname" : "Arial",
		"gridonopen" : 0,
		"gridsize" : [ 15.0, 15.0 ],
		"gridsnaponopen" : 0,
		"toolbarvisible" : 1,
		"boxanimatetime" : 200,
		"imprint" : 0,
		"enablehscroll" : 1,
		"enablevscroll" : 1,
		"devicewidth" : 0.0,
		"boxes" : [ 			{
				"box" : 				{
					"maxclass" : "newobj",
					"text" : "bucket 2 1",
					"numinlets" : 1,
					"id" : "obj-38",
					"fontname" : "Arial",
					"numoutlets" : 2,
					"outlettype" : [ "", "" ],
					"patching_rect" : [ 435.0, 60.0, 66.0, 20.0 ],
					"fontsize" : 12.0
				}

			}
, 			{
				"box" : 				{
					"maxclass" : "newobj",
					"text" : "if abs($i1 - $i2) > 64 then out2 $i1 else $i1",
					"numinlets" : 2,
					"id" : "obj-20",
					"fontname" : "Arial",
					"numoutlets" : 2,
					"outlettype" : [ "", "" ],
					"patching_rect" : [ 435.0, 90.0, 234.0, 20.0 ],
					"fontsize" : 12.0
				}

			}
, 			{
				"box" : 				{
					"maxclass" : "message",
					"text" : "$1 10",
					"numinlets" : 2,
					"id" : "obj-17",
					"fontname" : "Arial",
					"numoutlets" : 1,
					"outlettype" : [ "" ],
					"patching_rect" : [ 345.0, 120.0, 41.0, 18.0 ],
					"fontsize" : 12.0
				}

			}
, 			{
				"box" : 				{
					"maxclass" : "message",
					"text" : "$1 10",
					"numinlets" : 2,
					"id" : "obj-4",
					"fontname" : "Arial",
					"numoutlets" : 1,
					"outlettype" : [ "" ],
					"patching_rect" : [ 435.0, 120.0, 41.0, 18.0 ],
					"fontsize" : 12.0
				}

			}
, 			{
				"box" : 				{
					"maxclass" : "newobj",
					"text" : "line~ 0.",
					"numinlets" : 2,
					"id" : "obj-16",
					"fontname" : "Arial",
					"numoutlets" : 2,
					"outlettype" : [ "signal", "bang" ],
					"patching_rect" : [ 435.0, 150.0, 50.0, 20.0 ],
					"fontsize" : 12.0
				}

			}
, 			{
				"box" : 				{
					"maxclass" : "newobj",
					"text" : "line~ 0.",
					"numinlets" : 2,
					"id" : "obj-15",
					"fontname" : "Arial",
					"numoutlets" : 2,
					"outlettype" : [ "signal", "bang" ],
					"patching_rect" : [ 345.0, 150.0, 50.0, 20.0 ],
					"fontsize" : 12.0
				}

			}
, 			{
				"box" : 				{
					"maxclass" : "newobj",
					"text" : "in 3",
					"numinlets" : 1,
					"id" : "obj-23",
					"fontname" : "Arial",
					"numoutlets" : 1,
					"outlettype" : [ "" ],
					"patching_rect" : [ 435.0, 30.0, 30.0, 20.0 ],
					"fontsize" : 12.0,
					"saved_object_attributes" : 					{

					}

				}

			}
, 			{
				"box" : 				{
					"maxclass" : "newobj",
					"text" : "in 2",
					"numinlets" : 1,
					"id" : "obj-22",
					"fontname" : "Arial",
					"numoutlets" : 1,
					"outlettype" : [ "" ],
					"patching_rect" : [ 345.0, 30.0, 30.0, 20.0 ],
					"fontsize" : 12.0,
					"saved_object_attributes" : 					{

					}

				}

			}
, 			{
				"box" : 				{
					"maxclass" : "newobj",
					"text" : "jit.peek~ left 3",
					"numinlets" : 3,
					"id" : "obj-14",
					"fontname" : "Arial",
					"numoutlets" : 2,
					"outlettype" : [ "signal", "" ],
					"patching_rect" : [ 420.0, 225.0, 85.0, 20.0 ],
					"fontsize" : 12.0
				}

			}
, 			{
				"box" : 				{
					"maxclass" : "newobj",
					"text" : "+~ 1025",
					"numinlets" : 2,
					"id" : "obj-13",
					"fontname" : "Arial",
					"numoutlets" : 1,
					"outlettype" : [ "signal" ],
					"patching_rect" : [ 420.0, 195.0, 55.0, 20.0 ],
					"fontsize" : 12.0
				}

			}
, 			{
				"box" : 				{
					"maxclass" : "newobj",
					"text" : "+~ 1",
					"numinlets" : 2,
					"id" : "obj-12",
					"fontname" : "Arial",
					"numoutlets" : 1,
					"outlettype" : [ "signal" ],
					"patching_rect" : [ 315.0, 195.0, 35.0, 20.0 ],
					"fontsize" : 12.0
				}

			}
, 			{
				"box" : 				{
					"maxclass" : "newobj",
					"text" : "jit.peek~ left 3",
					"numinlets" : 3,
					"id" : "obj-11",
					"fontname" : "Arial",
					"numoutlets" : 2,
					"outlettype" : [ "signal", "" ],
					"patching_rect" : [ 315.0, 225.0, 85.0, 20.0 ],
					"fontsize" : 12.0
				}

			}
, 			{
				"box" : 				{
					"maxclass" : "newobj",
					"text" : "+~",
					"numinlets" : 2,
					"id" : "obj-10",
					"fontname" : "Arial",
					"numoutlets" : 1,
					"outlettype" : [ "signal" ],
					"patching_rect" : [ 225.0, 345.0, 32.5, 20.0 ],
					"fontsize" : 12.0
				}

			}
, 			{
				"box" : 				{
					"maxclass" : "newobj",
					"text" : "-~",
					"numinlets" : 2,
					"id" : "obj-9",
					"fontname" : "Arial",
					"numoutlets" : 1,
					"outlettype" : [ "signal" ],
					"patching_rect" : [ 75.0, 345.0, 32.5, 20.0 ],
					"fontsize" : 12.0
				}

			}
, 			{
				"box" : 				{
					"maxclass" : "newobj",
					"text" : "*~",
					"numinlets" : 2,
					"id" : "obj-8",
					"fontname" : "Arial",
					"numoutlets" : 1,
					"outlettype" : [ "signal" ],
					"patching_rect" : [ 255.0, 285.0, 32.5, 20.0 ],
					"fontsize" : 12.0
				}

			}
, 			{
				"box" : 				{
					"maxclass" : "newobj",
					"text" : "*~",
					"numinlets" : 2,
					"id" : "obj-7",
					"fontname" : "Arial",
					"numoutlets" : 1,
					"outlettype" : [ "signal" ],
					"patching_rect" : [ 210.0, 285.0, 32.5, 20.0 ],
					"fontsize" : 12.0
				}

			}
, 			{
				"box" : 				{
					"maxclass" : "newobj",
					"text" : "*~",
					"numinlets" : 2,
					"id" : "obj-6",
					"fontname" : "Arial",
					"numoutlets" : 1,
					"outlettype" : [ "signal" ],
					"patching_rect" : [ 105.0, 285.0, 32.5, 20.0 ],
					"fontsize" : 12.0
				}

			}
, 			{
				"box" : 				{
					"maxclass" : "newobj",
					"text" : "*~",
					"numinlets" : 2,
					"id" : "obj-5",
					"fontname" : "Arial",
					"numoutlets" : 1,
					"outlettype" : [ "signal" ],
					"patching_rect" : [ 60.0, 285.0, 32.5, 20.0 ],
					"fontsize" : 12.0
				}

			}
, 			{
				"box" : 				{
					"maxclass" : "newobj",
					"text" : "fftout~ 1",
					"numinlets" : 2,
					"id" : "obj-2",
					"fontname" : "Arial",
					"numoutlets" : 0,
					"patching_rect" : [ 75.0, 465.0, 54.0, 20.0 ],
					"fontsize" : 12.0
				}

			}
, 			{
				"box" : 				{
					"maxclass" : "newobj",
					"text" : "fftin~ 1",
					"numinlets" : 1,
					"id" : "obj-1",
					"fontname" : "Arial",
					"numoutlets" : 3,
					"outlettype" : [ "signal", "signal", "signal" ],
					"patching_rect" : [ 75.0, 30.0, 47.0, 20.0 ],
					"fontsize" : 12.0
				}

			}
 ],
		"lines" : [ 			{
				"patchline" : 				{
					"source" : [ "obj-20", 1 ],
					"destination" : [ "obj-16", 0 ],
					"hidden" : 0,
					"midpoints" : [ 659.5, 145.0, 444.5, 145.0 ]
				}

			}
, 			{
				"patchline" : 				{
					"source" : [ "obj-20", 0 ],
					"destination" : [ "obj-4", 0 ],
					"hidden" : 0,
					"midpoints" : [  ]
				}

			}
, 			{
				"patchline" : 				{
					"source" : [ "obj-38", 0 ],
					"destination" : [ "obj-20", 0 ],
					"hidden" : 0,
					"midpoints" : [  ]
				}

			}
, 			{
				"patchline" : 				{
					"source" : [ "obj-38", 1 ],
					"destination" : [ "obj-20", 1 ],
					"hidden" : 0,
					"midpoints" : [ 491.5, 84.5, 659.5, 84.5 ]
				}

			}
, 			{
				"patchline" : 				{
					"source" : [ "obj-15", 0 ],
					"destination" : [ "obj-11", 1 ],
					"hidden" : 0,
					"midpoints" : [ 354.5, 219.0, 357.5, 219.0 ]
				}

			}
, 			{
				"patchline" : 				{
					"source" : [ "obj-1", 0 ],
					"destination" : [ "obj-5", 0 ],
					"hidden" : 0,
					"midpoints" : [ 84.5, 247.0, 69.5, 247.0 ]
				}

			}
, 			{
				"patchline" : 				{
					"source" : [ "obj-1", 1 ],
					"destination" : [ "obj-6", 0 ],
					"hidden" : 0,
					"midpoints" : [ 98.5, 250.0, 114.5, 250.0 ]
				}

			}
, 			{
				"patchline" : 				{
					"source" : [ "obj-5", 0 ],
					"destination" : [ "obj-9", 0 ],
					"hidden" : 0,
					"midpoints" : [ 69.5, 324.5, 84.5, 324.5 ]
				}

			}
, 			{
				"patchline" : 				{
					"source" : [ "obj-6", 0 ],
					"destination" : [ "obj-9", 1 ],
					"hidden" : 0,
					"midpoints" : [ 114.5, 324.5, 98.0, 324.5 ]
				}

			}
, 			{
				"patchline" : 				{
					"source" : [ "obj-9", 0 ],
					"destination" : [ "obj-2", 0 ],
					"hidden" : 0,
					"midpoints" : [  ]
				}

			}
, 			{
				"patchline" : 				{
					"source" : [ "obj-1", 1 ],
					"destination" : [ "obj-7", 0 ],
					"hidden" : 0,
					"midpoints" : [ 98.5, 130.5, 219.5, 130.5 ]
				}

			}
, 			{
				"patchline" : 				{
					"source" : [ "obj-1", 0 ],
					"destination" : [ "obj-8", 0 ],
					"hidden" : 0,
					"midpoints" : [ 84.5, 152.5, 264.5, 152.5 ]
				}

			}
, 			{
				"patchline" : 				{
					"source" : [ "obj-7", 0 ],
					"destination" : [ "obj-10", 0 ],
					"hidden" : 0,
					"midpoints" : [ 219.5, 324.5, 234.5, 324.5 ]
				}

			}
, 			{
				"patchline" : 				{
					"source" : [ "obj-8", 0 ],
					"destination" : [ "obj-10", 1 ],
					"hidden" : 0,
					"midpoints" : [ 264.5, 324.5, 248.0, 324.5 ]
				}

			}
, 			{
				"patchline" : 				{
					"source" : [ "obj-10", 0 ],
					"destination" : [ "obj-2", 1 ],
					"hidden" : 0,
					"midpoints" : [ 234.5, 448.0, 119.5, 448.0 ]
				}

			}
, 			{
				"patchline" : 				{
					"source" : [ "obj-1", 2 ],
					"destination" : [ "obj-12", 0 ],
					"hidden" : 0,
					"midpoints" : [ 112.5, 188.0, 324.5, 188.0 ]
				}

			}
, 			{
				"patchline" : 				{
					"source" : [ "obj-12", 0 ],
					"destination" : [ "obj-11", 0 ],
					"hidden" : 0,
					"midpoints" : [  ]
				}

			}
, 			{
				"patchline" : 				{
					"source" : [ "obj-13", 0 ],
					"destination" : [ "obj-14", 0 ],
					"hidden" : 0,
					"midpoints" : [  ]
				}

			}
, 			{
				"patchline" : 				{
					"source" : [ "obj-1", 2 ],
					"destination" : [ "obj-13", 0 ],
					"hidden" : 0,
					"midpoints" : [ 112.5, 188.0, 429.5, 188.0 ]
				}

			}
, 			{
				"patchline" : 				{
					"source" : [ "obj-11", 0 ],
					"destination" : [ "obj-7", 1 ],
					"hidden" : 0,
					"midpoints" : [ 324.5, 264.5, 233.0, 264.5 ]
				}

			}
, 			{
				"patchline" : 				{
					"source" : [ "obj-11", 0 ],
					"destination" : [ "obj-5", 1 ],
					"hidden" : 0,
					"midpoints" : [ 324.5, 264.5, 83.0, 264.5 ]
				}

			}
, 			{
				"patchline" : 				{
					"source" : [ "obj-14", 0 ],
					"destination" : [ "obj-6", 1 ],
					"hidden" : 0,
					"midpoints" : [ 429.5, 277.5, 128.0, 277.5 ]
				}

			}
, 			{
				"patchline" : 				{
					"source" : [ "obj-14", 0 ],
					"destination" : [ "obj-8", 1 ],
					"hidden" : 0,
					"midpoints" : [ 429.5, 277.5, 278.0, 277.5 ]
				}

			}
, 			{
				"patchline" : 				{
					"source" : [ "obj-15", 0 ],
					"destination" : [ "obj-14", 1 ],
					"hidden" : 0,
					"midpoints" : [ 354.5, 219.0, 462.5, 219.0 ]
				}

			}
, 			{
				"patchline" : 				{
					"source" : [ "obj-16", 0 ],
					"destination" : [ "obj-11", 2 ],
					"hidden" : 0,
					"midpoints" : [ 444.5, 182.0, 390.5, 182.0 ]
				}

			}
, 			{
				"patchline" : 				{
					"source" : [ "obj-16", 0 ],
					"destination" : [ "obj-14", 2 ],
					"hidden" : 0,
					"midpoints" : [ 444.5, 182.0, 495.5, 182.0 ]
				}

			}
, 			{
				"patchline" : 				{
					"source" : [ "obj-4", 0 ],
					"destination" : [ "obj-16", 0 ],
					"hidden" : 0,
					"midpoints" : [  ]
				}

			}
, 			{
				"patchline" : 				{
					"source" : [ "obj-17", 0 ],
					"destination" : [ "obj-15", 0 ],
					"hidden" : 0,
					"midpoints" : [  ]
				}

			}
, 			{
				"patchline" : 				{
					"source" : [ "obj-22", 0 ],
					"destination" : [ "obj-17", 0 ],
					"hidden" : 0,
					"midpoints" : [  ]
				}

			}
, 			{
				"patchline" : 				{
					"source" : [ "obj-23", 0 ],
					"destination" : [ "obj-38", 0 ],
					"hidden" : 0,
					"midpoints" : [  ]
				}

			}
 ]
	}

}
